<?xml version="1.0" encoding="utf-8"?>
<!-- Svg Vector Icons : http://www.onlinewebfonts.com/icon -->
<!DOCTYPE svg PUBLIC "-//W3C//DTD SVG 1.1//EN" "http://www.w3.org/Graphics/SVG/1.1/DTD/svg11.dtd">
<svg version="1.1" xmlns="http://www.w3.org/2000/svg" xmlns:xlink="http://www.w3.org/1999/xlink" x="0px" y="0px" viewBox="0 0 256 256" enable-background="new 0 0 256 256" xml:space="preserve">
<metadata> Svg Vector Icons : http://www.onlinewebfonts.com/icon </metadata>
<g><g><g><path stroke-width="2" fill-opacity="0" stroke="#000000"  d="M168,10.3c-3.8,1.1-11.4,10.7-15.7,19.8c-4.5,9.5-6.8,20.6-6.8,32.6v6.6h-6.7c-20.3,0-37.6,6.6-50.1,19.1c-12.8,12.8-19.3,29.9-19.3,50.4v6.6h-6.6c-19.4,0-36.9,6.3-48.8,17.7c-3.6,3.5-4.5,5.9-3.7,9.5c0.5,1.9,1.9,3.6,8.3,10c6.4,6.2,8.2,7.8,9.8,8.1c3.1,0.6,5.1-0.1,8.5-3c4-3.3,8.3-5.9,8.3-4.9c0,0.4,6.4,7.1,14.1,14.8l14,14.1l-1.9,2.9c-1,1.6-2.8,3.9-3.9,5.3c-1.1,1.3-2.1,3.2-2.4,4.3c-0.7,3.8,0.4,5.5,8.4,13.5c8.1,8,9.7,9,13.5,8.1c2.5-0.5,3.7-1.4,7.1-5.3c10.6-12.2,16.3-28.6,16.3-47.3v-6.6h6.7c20.3,0,37.6-6.6,50.2-19.2c12.6-12.7,19.2-29.9,19.2-50.3v-6.6h6.7c18.6,0,35-5.7,47.2-16.3c3.8-3.4,4.7-4.5,5.3-7.1c0.9-3.7-0.2-5.4-8.1-13.5c-8-8-9.6-9.1-13.5-8.4c-1.1,0.2-3.2,1.5-5.1,3c-4.1,3.3-8.4,5.9-8.4,4.9c0-0.4-6.3-7.1-14-14.8l-14.1-14.1l1.3-2.1c0.7-1.1,2.5-3.5,3.9-5.3c1.5-1.8,2.8-4,3-5c0.7-3.8-0.1-5.1-7.7-12.8c-3.9-4.1-7.8-7.6-8.5-8C172.5,10,170.1,9.7,168,10.3z M175.3,23c2.5,2.5,5,5.2,5.8,6l1.3,1.4l-1.9,2.1c-2.4,2.6-4.5,6.2-6.2,10.4l-1.3,3.1l14.8,14.8c8.2,8.2,14.6,15,14.3,15.2c-0.3,0.2-2.7,0.5-5.4,0.7l-4.9,0.4L181.7,67c-5.6-5.6-10.4-10.2-10.6-10.2s-0.4,3.7-0.2,8.5c0.2,4.7,0.2,8.5,0.1,8.5c-0.1,0-2.7-0.6-5.8-1.3c-3.1-0.8-6.8-1.5-8.3-1.8c-3.3-0.4-3.4-0.8-3-10.3c0.7-15.8,4.7-27.4,13-37.8c1.8-2.2,3.4-4.1,3.6-4.1C170.8,18.5,172.9,20.5,175.3,23z M231.8,79.3c3.1,3.1,5.7,5.8,5.7,6c0,0.7-8.1,6.9-11.7,8.9c-11.1,6.2-26.6,9-41.7,7.4c-7.1-0.8-12.6-1.8-23.1-4.3c-9.4-2.4-16-3.1-24.5-2.7c-8.5,0.3-14,1.6-20.4,4.8c-8,3.9-9.2,1.6,11.8,22.6l18.3,18.3l-1.2,1.7c-0.7,0.9-2,2.2-2.8,2.8l-1.7,1.2l-18.3-18.3L104,109.7l-1.2,1c-1.7,1.5-5.3,9.2-6.7,14.3c-1,3.7-1.2,5.8-1.2,14.6c-0.1,5.7-0.2,10.3-0.2,10.3c-0.1,0-2.1-0.5-4.4-1c-2.4-0.6-5.9-1.4-8.1-1.8c-2.1-0.3-4-0.9-4.2-1.3c-1.2-1.8,0.1-18.6,2-25.7c4.9-18.6,17.3-32.1,35-38.4c8.4-3,13.5-3.8,24.7-3.8c11,0,14.5,0.5,29.3,4.1c5,1.2,11.5,2.5,14.5,2.8c7.3,0.9,18,0.3,23.5-1.1c5.6-1.5,12.5-4.9,15.7-7.7c1.4-1.2,2.7-2.2,3-2.2C225.9,73.8,228.7,76.3,231.8,79.3z M152.5,111.7l9,8.9l-0.3-7.3c-0.1-3.9-0.2-7.2,0-7.2s2.1,0.5,4.4,1c2.4,0.6,6,1.4,8.1,1.8c2.1,0.3,4,0.9,4.2,1.3c0.7,1,0.5,10.6-0.4,16.8c-3.4,25.1-18.4,42.8-41.7,49c-4.5,1.3-14,2.5-18.9,2.5c-8.5,0-17.4-1.3-31.1-4.7c-4.1-1-9.8-2.1-12.8-2.5c-7.2-0.9-18.5-0.4-24.2,1c-5.5,1.4-12.5,4.8-15.7,7.7c-1.4,1.2-2.7,2.2-3,2.2c-0.5-0.1-11.7-11.2-11.7-11.7c0-0.7,8.3-6.9,11.8-8.9c4.7-2.6,12.6-5.4,18.7-6.6c3.6-0.7,7.4-0.9,14.7-0.9c10.9,0,14.5,0.5,29.3,4.1c10.2,2.4,16.2,3.3,23,3.3h4.7l-8.9-8.9l-8.9-8.9v-4.1c0-7.8-0.9-8.3,14.3,6.9l13.6,13.6l2.4-0.7c1.3-0.4,4.4-1.7,7-2.9c3.7-1.8,5.5-3.1,9.4-7c3.9-3.9,5.2-5.5,7-9.4c1.2-2.6,2.5-5.7,2.9-7l0.7-2.4L146.3,117c-10.7-10.7-13.4-13.6-12.5-13.9c0.5-0.1,3-0.3,5.4-0.3l4.4-0.1L152.5,111.7z M74.3,189c5.6,5.6,10.4,10.1,10.6,10.1c0.3,0,0.4-3.7,0.2-8.5c-0.2-4.7-0.2-8.5-0.1-8.5c0.2,0,2.1,0.5,4.4,1c2.4,0.6,6,1.4,8.1,1.8c2.1,0.3,4,0.9,4.2,1.3c0.7,1,0.5,10.6-0.4,16.8c-1.5,11.4-5.3,21-11.2,28.9c-5,6.6-4.2,6.6-10.8-0.1c-4.3-4.3-5.7-6.1-5.3-6.6c0.3-0.4,1.5-2.1,2.8-3.7c1.3-1.7,3.2-5,4.3-7.3l1.9-4.3L68.2,195c-9.9-9.9-14.6-15-14.1-15.2c1-0.4,3.9-0.7,7.3-0.8l2.7-0.1L74.3,189z"/></g></g></g>
</svg>